<svg xmlns="http://www.w3.org/2000/svg" width="32" height="32" class="icon" version="1.1" viewBox="0 0 1024 1024"><path fill="#fff" d="M871.2 584.2c-14.2-33.9-33.1-64-52.6-86.8 7.6-11.3 12.3-27.2 12.3-44.9 0-23.8-8.6-44.5-21.2-55 2.6-15.3 4-31 4-47 0-157.9-131.6-285.9-294-285.9-162.3 0-293.9 128-293.9 285.9 0 9.2 0.5 18.2 1.3 27.2-13.2 10.1-22.3 31.3-22.3 55.8 0 20.9 6.7 39.4 16.8 50.7-21.5 20.9-42.9 49.3-60 82.7-41.7 81.4-35.5 163.7-9.8 177.1 13.2 6.9 47.5-14.7 81.2-54.8 5.5 47.1 28.2 90.2 63.1 124.8-57.7 16.7-95.9 49.7-90.8 83.2 6.4 42.3 79.4 69.5 163.2 60.6 61.3-6.5 111.4-30.5 131.3-59.5 5.1 0.2 10.3 0.4 15.5 0.4 9 0 17.8-0.4 26.6-1 21.3 27.6 68.4 50.6 125.3 57.7 81.3 10.1 151.6-15.9 157-58.1 4.3-33.3-32.9-66.7-88.5-84.4 32.7-32.9 54.5-73.3 61.1-117.5 29.9 40.1 60.6 65.8 76.6 62.3 18.9-4.1 32.4-90.6-2.2-173.5z"/></svg>